<svg width="102" height="114" viewBox="0 0 102 114" fill="none" xmlns="http://www.w3.org/2000/svg">
<path d="M1.75781 103.125C2.39258 101.855 3.05176 100.439 3.73535 98.877C4.41895 97.2656 5.05371 95.5322 5.63965 93.6768L7.61719 88.8428C6.73828 87.5244 5.83496 86.1084 4.90723 84.5947C4.02832 83.0322 3.22266 81.4453 2.49023 79.834C1.75781 78.2227 1.14746 76.6113 0.65918 75C0.219727 73.3887 0 71.8262 0 70.3125C0 70.2148 0.366211 70.1416 1.09863 70.0928C1.87988 69.9951 2.83203 69.9219 3.95508 69.873C5.12695 69.8242 6.37207 69.7998 7.69043 69.7998C9.05762 69.751 10.3027 69.7266 11.4258 69.7266C12.5977 69.6777 13.5498 69.6533 14.2822 69.6533C15.0635 69.6045 15.4541 69.5801 15.4541 69.5801C16.5771 66.6504 17.6758 63.8672 18.75 61.2305C19.8242 58.5938 20.8984 55.9326 21.9727 53.2471C23.0469 50.5615 24.1211 47.8271 25.1953 45.0439C26.2695 42.2119 27.3438 39.1846 28.418 35.9619C30.4688 29.9072 32.4707 24.585 34.4238 19.9951C36.377 15.4053 38.208 11.1328 39.917 7.17773C40.1123 6.68945 40.4297 6.25 40.8691 5.85938C41.3574 5.41992 41.8701 5.05371 42.4072 4.76074C42.9443 4.46777 43.457 4.22363 43.9453 4.02832C44.4824 3.83301 44.8975 3.68652 45.1904 3.58887C45.3857 3.54004 46.1182 3.32031 47.3877 2.92969C48.7061 2.53906 50.1953 2.12402 51.8555 1.68457C53.5156 1.24512 55.1514 0.854492 56.7627 0.512695C58.4229 0.170898 59.7412 0 60.7178 0H62.0361C62.8174 0 63.5498 0.195313 64.2334 0.585938C64.9658 0.927734 65.4541 1.63574 65.6982 2.70996C68.042 8.71582 70.5322 15.2832 73.1689 22.4121C75.8545 29.4922 78.4668 37.3047 81.0059 45.8496C82.373 50.4395 83.7158 54.7852 85.0342 58.8867C86.3525 62.9883 87.6709 66.9922 88.9893 70.8984C90.3076 74.8047 91.626 78.7109 92.9443 82.6172C94.3115 86.5234 95.7031 90.5518 97.1191 94.7021C97.5586 96.46 97.998 97.8516 98.4375 98.877C98.9258 99.9023 99.3652 100.708 99.7559 101.294C100.146 101.88 100.464 102.319 100.708 102.612C100.952 102.856 101.074 103.125 101.074 103.418C101.074 103.711 100.61 104.004 99.6826 104.297L83.9355 109.424C82.7637 109.863 81.5674 110.303 80.3467 110.742C79.126 111.182 77.9785 111.572 76.9043 111.914C75.8301 112.256 74.8779 112.524 74.0479 112.72C73.2666 112.964 72.7051 113.086 72.3633 113.086H71.9238C71.2402 113.086 70.752 112.866 70.459 112.427C70.166 112.036 69.9707 111.646 69.873 111.255C69.3848 109.644 68.8965 108.203 68.4082 106.934C67.9199 105.615 67.4316 104.321 66.9434 103.052C66.5039 101.733 66.04 100.342 65.5518 98.877C65.1123 97.4121 64.6729 95.6787 64.2334 93.6768C64.1357 93.4326 63.8672 93.2373 63.4277 93.0908C62.9883 92.8955 62.4512 92.749 61.8164 92.6514C61.2305 92.5537 60.5957 92.5049 59.9121 92.5049C59.2285 92.4561 58.5938 92.4316 58.0078 92.4316C56.1523 92.4316 54.6387 92.4561 53.4668 92.5049C52.3438 92.5049 51.3428 92.5293 50.4639 92.5781C49.585 92.5781 48.7305 92.6025 47.9004 92.6514C47.1191 92.6514 46.1426 92.6514 44.9707 92.6514C43.5547 92.6514 42.0898 92.6514 40.5762 92.6514C39.1113 92.6025 37.7686 92.5537 36.5479 92.5049L32.373 92.3584C31.1035 95.874 29.834 99.1699 28.5645 102.246C27.2949 105.322 25.9277 108.496 24.4629 111.768C24.3652 112.158 24.1211 112.476 23.7305 112.72C23.3887 112.964 23.0225 113.086 22.6318 113.086C22.3389 113.086 22.168 113.062 22.1191 113.013C17.3828 111.304 13.4033 109.619 10.1807 107.959C6.95801 106.299 4.15039 104.688 1.75781 103.125ZM51.123 37.2803C49.9512 41.626 48.7793 45.5811 47.6074 49.1455C46.4844 52.6611 45.4346 55.7861 44.458 58.5205C43.5303 61.2549 42.7246 63.5742 42.041 65.4785C41.3574 67.334 40.8691 68.7744 40.5762 69.7998V70.459C40.5762 70.752 40.5518 70.9473 40.5029 71.0449H58.0811C57.5439 68.6523 56.958 66.2354 56.3232 63.7939C55.7373 61.3525 55.1514 58.7891 54.5654 56.1035C53.9795 53.418 53.3936 50.5371 52.8076 47.4609C52.2217 44.3848 51.6602 40.9912 51.123 37.2803Z" fill="white"/>
</svg>
